<?xml version="1.0" standalone="no"?>
<!DOCTYPE svg PUBLIC "-//W3C//DTD SVG 20010904//EN"
 "http://www.w3.org/TR/2001/REC-SVG-20010904/DTD/svg10.dtd">
<svg version="1.0" xmlns="http://www.w3.org/2000/svg"
 width="512.000000pt" height="512.000000pt" viewBox="0 0 512.000000 512.000000"
 preserveAspectRatio="xMidYMid meet">
<metadata>
Created by potrace 1.14, written by Peter Selinger 2001-2017
</metadata>
<g transform="translate(0.000000,512.000000) scale(0.100000,-0.100000)"
fill="#000000" stroke="none">
<path d="M2358 5114 c-8 -7 8 -61 25 -88 8 -11 45 -52 82 -89 47 -47 64 -72
57 -79 -15 -15 -101 -12 -153 5 -25 9 -52 14 -60 13 -69 -13 -89 -19 -89 -25
0 -8 -133 -71 -149 -71 -33 0 -256 -94 -450 -188 -47 -24 -229 -207 -299 -301
-15 -20 -43 -56 -63 -81 -20 -25 -44 -58 -53 -75 -9 -16 -30 -48 -47 -70 -16
-22 -37 -56 -46 -75 -19 -41 -17 -36 -28 -75 -5 -16 -17 -46 -28 -65 -11 -19
-39 -69 -62 -111 -23 -42 -51 -85 -61 -96 -10 -11 -41 -46 -69 -78 -83 -96
-173 -183 -230 -219 -16 -11 -38 -27 -48 -37 -10 -9 -40 -20 -65 -25 -26 -4
-51 -8 -57 -9 -5 -1 -16 -3 -22 -3 -18 -3 -16 -47 1 -61 16 -13 95 -22 111
-12 6 3 16 6 23 7 8 2 38 14 68 28 61 29 104 42 104 31 0 -5 -17 -33 -37 -64
-80 -119 -124 -206 -156 -306 -63 -200 -87 -283 -93 -315 -3 -19 -7 -40 -8
-47 -1 -7 -4 -14 -7 -17 -6 -7 -3 -259 5 -281 8 -25 64 -65 82 -58 10 4 8 10
-7 26 -19 20 -21 32 -17 137 3 70 12 139 23 175 28 94 121 297 151 330 15 17
34 48 43 70 18 46 70 122 88 129 10 4 13 -13 14 -67 1 -40 0 -76 -1 -82 -1 -5
-4 -23 -6 -40 -7 -60 -34 -202 -54 -290 -20 -87 -27 -231 -14 -300 28 -154 81
-268 179 -382 20 -24 45 -33 28 -10 -32 40 -89 235 -93 318 -7 172 0 256 16
173 9 -44 9 -45 28 -109 27 -92 73 -169 147 -248 37 -40 70 -70 72 -67 3 3 1
30 -4 59 -4 30 -7 57 -4 59 4 4 59 -49 90 -88 47 -58 207 -184 258 -203 19 -7
16 3 -8 33 -41 50 -117 241 -102 256 3 3 19 -14 35 -38 17 -24 43 -56 59 -73
45 -47 166 -151 191 -164 14 -7 21 -18 18 -26 -3 -8 0 -17 6 -21 6 -4 -22 -15
-61 -25 -40 -10 -94 -31 -121 -46 l-49 -28 -21 23 c-30 31 -32 27 -9 -13 12
-19 16 -35 11 -35 -6 0 -14 9 -17 20 -3 11 -13 20 -21 20 -9 0 -14 7 -12 17 2
11 -2 17 -11 15 -7 -1 -19 2 -26 8 -8 7 -15 7 -19 1 -3 -5 0 -12 6 -15 7 -3 0
-4 -17 -3 -23 2 -32 -4 -43 -25 -12 -25 -34 -40 -31 -20 1 4 -2 22 -6 41 l-8
34 -19 -22 c-10 -13 -18 -34 -18 -46 0 -13 -15 -54 -34 -91 -18 -38 -39 -98
-45 -134 -28 -167 -29 -185 -17 -240 10 -44 10 -47 -3 -150 -14 -105 -15 -143
-6 -295 14 -264 14 -262 -10 -314 -13 -27 -30 -53 -38 -57 -20 -13 -137 -194
-137 -213 0 -9 7 -27 15 -41 8 -14 21 -42 31 -63 l16 -37 1763 0 c1671 0 1764
1 1769 18 3 9 7 28 10 42 2 14 9 43 15 65 14 52 7 85 -21 111 -13 11 -28 29
-34 40 -6 10 -21 24 -32 30 -12 6 -38 28 -59 50 l-37 39 2 180 c2 99 3 198 3
220 1 56 -74 362 -103 421 -13 27 -3 61 21 74 23 12 21 69 -3 82 -9 5 -16 14
-16 20 0 19 -53 133 -69 148 -9 9 -17 22 -19 30 -4 18 -59 108 -77 126 -25 25
-63 27 -92 4 -31 -24 -60 -21 -96 10 -12 10 -33 28 -46 39 -13 12 -28 21 -33
21 -4 0 -34 12 -66 27 l-59 26 73 73 c60 59 82 90 122 174 27 56 53 97 56 91
4 -6 15 -11 25 -11 16 0 18 -10 20 -72 1 -40 3 -95 4 -121 2 -27 -1 -50 -5
-53 -4 -3 -8 -17 -8 -32 0 -15 -9 -42 -20 -60 -22 -36 -26 -67 -9 -77 11 -7
68 50 70 69 1 6 2 17 3 23 0 7 13 25 27 41 31 32 103 142 93 142 -4 0 -1 7 6
15 20 24 27 3 25 -73 -2 -87 -13 -142 -34 -166 -15 -17 -15 -18 3 -15 18 4 85
103 111 166 10 23 19 31 30 27 8 -4 26 1 39 9 48 32 194 262 211 332 4 17 9
39 12 50 5 23 11 71 13 100 1 19 1 19 19 -2 18 -21 41 -113 47 -183 2 -19 5
-57 8 -85 4 -39 -1 -62 -20 -104 -13 -29 -24 -60 -24 -67 0 -21 18 -17 31 8
11 20 12 20 24 4 17 -23 21 -12 24 58 2 32 7 69 11 82 9 23 5 256 -5 324 -5
36 -12 71 -15 80 -1 3 -2 9 -1 14 3 16 -61 260 -76 289 -7 15 -11 27 -9 27 5
0 -59 150 -94 222 -13 26 -21 50 -17 54 3 3 35 6 71 5 57 -1 66 2 71 20 8 23
59 72 166 158 80 64 102 91 90 110 -6 10 -20 9 -62 -3 -78 -22 -158 -29 -209
-16 -25 6 -50 12 -55 13 -6 1 -27 13 -46 25 -20 12 -39 22 -42 22 -11 0 -82
51 -163 118 -66 54 -97 90 -162 187 -44 66 -93 145 -110 175 -89 162 -124 215
-183 278 -35 38 -89 97 -119 131 -86 98 -281 253 -331 263 -8 2 -16 6 -19 10
-9 11 -121 72 -189 102 -104 46 -211 67 -353 66 -53 0 -88 15 -88 39 0 4 -9
17 -20 29 -39 42 -88 146 -85 180 l3 32 -122 0 c-68 0 -125 -3 -128 -6z"/>
<path d="M3217 5078 c23 -57 23 -146 0 -181 -10 -15 -14 -27 -9 -27 24 0 152
112 152 134 0 5 -7 18 -17 28 -12 14 -14 23 -6 41 18 39 6 47 -68 47 l-69 0
17 -42z m38 -8 c3 -5 1 -10 -4 -10 -6 0 -11 5 -11 10 0 6 2 10 4 10 3 0 8 -4
11 -10z"/>
<path d="M1254 1685 c-16 -12 -17 -14 -3 -15 9 0 19 7 23 15 7 19 5 19 -20 0z"/>
</g>
</svg>
